<svg version="1.1" viewBox="0.0 0.0 512.0 512.0" fill="none" stroke="none" stroke-linecap="square" stroke-miterlimit="10" xmlns:xlink="http://www.w3.org/1999/xlink" xmlns="http://www.w3.org/2000/svg"><clipPath id="p.0"><path d="m0 0l512.0 0l0 512.0l-512.0 0l0 -512.0z" clip-rule="nonzero"/></clipPath><g clip-path="url(#p.0)"><path fill="#000000" fill-opacity="0.0" d="m0 0l512.0 0l0 512.0l-512.0 0z" fill-rule="evenodd"/><path fill="#ff6688" d="m152.57971 459.95154c-17.278046 -55.20218 62.26776 -343.03015 95.45497 -345.39355c33.18721 -2.3634186 119.57741 273.64746 103.66823 331.21307c-15.909149 57.565613 -181.84517 69.38266 -199.1232 14.180511z" fill-rule="evenodd"/><path stroke="#ff6688" stroke-width="1.0" stroke-linejoin="round" stroke-linecap="butt" d="m152.57971 459.95154c-17.278046 -55.20218 62.26776 -343.03015 95.45497 -345.39355c33.18721 -2.3634186 119.57741 273.64746 103.66823 331.21307c-15.909149 57.565613 -181.84517 69.38266 -199.1232 14.180511z" fill-rule="evenodd"/><path fill="#000000" fill-opacity="0.0" d="m55.952755 16.293962l417.10236 198.99213" fill-rule="evenodd"/><path stroke="#ff6688" stroke-width="16.0" stroke-linejoin="round" stroke-linecap="butt" d="m55.952755 16.293962l417.10236 198.99213" fill-rule="evenodd"/></g></svg>